<svg width="96" height="96" viewBox="0 0 480 480" fill="none" xmlns="http://www.w3.org/2000/svg">
<path d="M89.1284 416.418C86.272 380.259 82.5228 344.492 77.8811 309.119C73.4178 273.746 67.9726 238.078 61.5456 202.115C61.01 199.757 60.2958 197.89 59.4032 196.515C58.6891 194.942 57.6179 194.156 56.1897 194.156C55.1185 194.156 53.8688 194.255 52.4405 194.451C51.1908 194.648 49.8518 194.746 48.4236 194.746C41.6395 194.746 36.3728 192.879 32.6237 189.145C28.8746 185.411 27 180.695 27 174.996C27 168.511 29.4102 162.222 34.2305 156.13C39.2293 150.038 45.7457 144.339 53.7795 139.033C61.8134 133.531 71.0076 128.519 81.3624 124C91.7171 119.48 102.34 115.648 113.23 112.503C124.299 109.162 135.189 106.608 145.901 104.839C156.613 102.874 166.343 101.891 175.091 101.891C190.98 101.891 204.637 104.053 216.063 108.376C227.668 112.7 237.13 118.399 244.45 125.473C251.948 132.548 257.393 140.704 260.785 149.94C264.356 159.176 266.141 168.707 266.141 178.533C266.141 188.359 264.177 199.168 260.249 210.959C256.5 222.553 250.073 233.656 240.968 244.268C239.897 245.644 239.183 246.823 238.826 247.806C238.469 248.592 238.29 249.476 238.29 250.459C238.29 252.227 240.076 253.406 243.646 253.996C254.001 254.979 263.999 257.73 273.639 262.25C283.458 266.77 292.028 272.665 299.348 279.936C306.667 287.011 312.559 295.363 317.022 304.992C321.485 314.622 323.717 324.841 323.717 335.649C323.717 350.781 321.039 364.046 315.683 375.444C310.506 386.645 303.275 395.98 293.992 403.448C284.708 410.915 273.639 416.418 260.785 419.955C248.109 423.689 234.363 425.556 219.545 425.556C207.94 425.556 196.246 424.377 184.463 422.019C172.859 419.857 161.522 417.007 150.453 413.47C149.739 413.077 148.668 412.881 147.24 412.881C144.205 412.881 141.795 414.846 140.009 418.776C136.974 425.458 132.6 430.665 126.888 434.399C121.353 438.133 115.729 440 110.016 440C104.839 440 100.287 438.133 96.3589 434.399C92.4312 430.862 90.0211 424.868 89.1284 416.418ZM141.081 304.108C137.153 305.68 135.189 308.726 135.189 313.246C135.189 313.836 135.368 315.997 135.725 319.731C136.26 323.465 136.885 327.494 137.599 331.817C138.313 336.926 139.117 342.429 140.009 348.324C140.545 353.434 142.955 356.578 147.24 357.757C152.774 359.526 158.844 361.393 165.45 363.358C172.056 365.127 178.929 366.797 186.07 368.369C193.211 369.941 200.442 371.219 207.762 372.201C215.081 373.184 222.133 373.675 228.917 373.675C234.095 373.675 239.094 373.086 243.914 371.907C248.734 370.531 253.019 368.468 256.768 365.716C260.517 362.965 263.463 359.526 265.605 355.399C267.926 351.076 269.087 345.868 269.087 339.776C269.087 330.933 266.855 323.465 262.392 317.373C257.929 311.281 252.305 306.368 245.521 302.634C238.737 298.9 231.328 296.247 223.294 294.675C215.26 292.906 207.672 292.022 200.531 292.022C190.891 292.022 181.071 293.201 171.074 295.559C161.255 297.918 151.257 300.767 141.081 304.108ZM120.46 163.5C118.497 164.089 116.979 164.777 115.908 165.563C114.837 166.349 114.301 167.823 114.301 169.985C114.301 172.146 114.658 176.077 115.372 181.776C116.265 187.278 117.247 193.567 118.318 200.641C119.568 207.716 120.818 215.085 122.067 222.75C123.495 230.217 124.745 236.997 125.816 243.089C126.173 246.823 126.888 249.378 127.959 250.753C129.208 252.129 130.726 252.817 132.511 252.817C133.582 252.817 134.921 252.62 136.528 252.227C138.313 251.638 140.634 250.852 143.491 249.869C150.811 247.314 158.487 244.465 166.521 241.321C174.734 237.98 182.143 234.049 188.748 229.53C195.532 225.01 201.067 219.704 205.351 213.612C209.815 207.323 212.046 200.052 212.046 191.798C212.046 185.313 210.797 179.909 208.297 175.585C205.798 171.066 202.316 167.43 197.853 164.679C193.39 161.731 188.213 159.667 182.321 158.488C176.43 157.309 170.003 156.72 163.04 156.72C155.899 156.72 148.668 157.309 141.348 158.488C134.207 159.667 127.245 161.338 120.46 163.5Z" fill="#1476D1"/>
<path d="M353.892 65.3508C353.892 61.8135 354.695 58.5709 356.302 55.6232C357.909 52.4789 360.141 49.8259 362.997 47.6642C365.853 45.306 369.156 43.4391 372.905 42.0634C376.833 40.6878 380.939 40 385.224 40C393.615 40 399.774 41.4739 403.702 44.4216C407.629 47.3694 410.04 51.9876 410.932 58.2761C413.967 84.413 416.467 109.174 418.431 132.56C420.573 155.749 422.269 177.955 423.519 199.179C424.768 220.207 425.661 240.448 426.197 259.903C426.732 279.162 427 297.831 427 315.911C427 325.737 423.786 333.106 417.359 338.019C411.111 342.932 401.917 345.389 389.776 345.389C384.242 345.389 379.868 343.915 376.655 340.967C373.62 338.216 372.102 334.089 372.102 328.586C372.102 294.785 371.12 263.146 369.156 233.668C367.371 203.994 365.318 177.661 362.997 154.668C360.676 131.676 358.534 112.515 356.57 97.1867C354.785 81.6618 353.892 71.0498 353.892 65.3508Z" fill="#1476D1"/>
</svg>
